<?xml version="1.0" encoding="UTF-8" standalone="no"?>
<!DOCTYPE svg PUBLIC "-//W3C//DTD SVG 1.1//EN"
 "http://www.w3.org/Graphics/SVG/1.1/DTD/svg11.dtd">
<!-- Generated by graphviz version 2.26.3 (20100126.1600)
 -->
<!-- Title: G Pages: 1 -->
<svg width="384pt" height="476pt"
 viewBox="0.00 0.00 384.00 476.00" xmlns="http://www.w3.org/2000/svg" xmlns:xlink="http://www.w3.org/1999/xlink">
<g id="graph1" class="graph" transform="scale(1 1) rotate(0) translate(4 472)">
<title>G</title>
<polygon fill="white" stroke="white" points="-4,5 -4,-472 381,-472 381,5 -4,5"/>
<g id="graph2" class="cluster"><title>cluster_Global</title>
<polyline fill="none" stroke="gray" points="20,-8 356,-8 "/>
<path fill="none" stroke="gray" d="M356,-8C362,-8 368,-14 368,-20"/>
<polyline fill="none" stroke="gray" points="368,-20 368,-448 "/>
<path fill="none" stroke="gray" d="M368,-448C368,-454 362,-460 356,-460"/>
<polyline fill="none" stroke="gray" points="356,-460 20,-460 "/>
<path fill="none" stroke="gray" d="M20,-460C14,-460 8,-454 8,-448"/>
<polyline fill="none" stroke="gray" points="8,-448 8,-20 "/>
<path fill="none" stroke="gray" d="M8,-20C8,-14 14,-8 20,-8"/>
<text text-anchor="middle" x="188" y="-446.1" font-family="Times Roman,serif" font-size="11.00" fill="gray">Global</text>
</g>
<!-- \\RippleRestPayment -->
<g id="node2" class="node"><title>\\RippleRestPayment</title>
<polygon fill="none" stroke="black" points="339,-430 219,-430 219,-394 339,-394 339,-430"/>
<text text-anchor="middle" x="279" y="-409.1" font-family="Times Roman,serif" font-size="11.00">RippleRestPayment</text>
</g>
<!-- \\RippleRestObject -->
<g id="node9" class="node"><title>\\RippleRestObject</title>
<polygon fill="none" stroke="black" points="125,-268 17,-268 17,-232 125,-232 125,-268"/>
<text text-anchor="start" x="41" y="-255.433" font-family="Times Roman,serif" font-size="11.00">«abstract»</text>
<text text-anchor="start" x="25" y="-242.233" font-family="Times Roman,serif" font-size="11.00">RippleRestObject</text>
</g>
<!-- \\RippleRestPayment&#45;&gt;\\RippleRestObject -->
<g id="edge3" class="edge"><title>\\RippleRestPayment&#45;&gt;\\RippleRestObject</title>
<path fill="none" stroke="black" d="M218.193,-395.443C211.14,-392.455 204.244,-388.992 198,-385 152.597,-355.973 112.248,-307.151 89.7706,-276.854"/>
<polygon fill="none" stroke="black" points="92.3694,-274.478 83.649,-268.461 86.7138,-278.603 92.3694,-274.478"/>
</g>
<!-- \\RippleRestNotification -->
<g id="node3" class="node"><title>\\RippleRestNotification</title>
<polygon fill="none" stroke="black" points="346,-376 212,-376 212,-340 346,-340 346,-376"/>
<text text-anchor="middle" x="279" y="-355.1" font-family="Times Roman,serif" font-size="11.00">RippleRestNotification</text>
</g>
<!-- \\RippleRestNotification&#45;&gt;\\RippleRestObject -->
<g id="edge5" class="edge"><title>\\RippleRestNotification&#45;&gt;\\RippleRestObject</title>
<path fill="none" stroke="black" d="M219.06,-339.882C211.858,-337.162 204.691,-334.189 198,-331 164.212,-314.897 128.508,-291.481 103.591,-273.963"/>
<polygon fill="none" stroke="black" points="105.427,-270.974 95.2486,-268.034 101.372,-276.68 105.427,-270.974"/>
</g>
<!-- \\RippleRestOrder -->
<g id="node4" class="node"><title>\\RippleRestOrder</title>
<polygon fill="none" stroke="black" points="331,-322 227,-322 227,-286 331,-286 331,-322"/>
<text text-anchor="middle" x="279" y="-301.1" font-family="Times Roman,serif" font-size="11.00">RippleRestOrder</text>
</g>
<!-- \\RippleRestOrder&#45;&gt;\\RippleRestObject -->
<g id="edge7" class="edge"><title>\\RippleRestOrder&#45;&gt;\\RippleRestObject</title>
<path fill="none" stroke="black" d="M226.781,-290.443C199.103,-283.258 164.856,-274.366 135.527,-266.752"/>
<polygon fill="none" stroke="black" points="136.344,-263.348 125.786,-264.223 134.585,-270.124 136.344,-263.348"/>
</g>
<!-- \\RippleRestAmount -->
<g id="node5" class="node"><title>\\RippleRestAmount</title>
<polygon fill="none" stroke="black" points="337,-268 221,-268 221,-232 337,-232 337,-268"/>
<text text-anchor="middle" x="279" y="-247.1" font-family="Times Roman,serif" font-size="11.00">RippleRestAmount</text>
</g>
<!-- \\RippleRestAmount&#45;&gt;\\RippleRestObject -->
<g id="edge9" class="edge"><title>\\RippleRestAmount&#45;&gt;\\RippleRestObject</title>
<path fill="none" stroke="black" d="M220.23,-250C193.918,-250 162.81,-250 135.823,-250"/>
<polygon fill="none" stroke="black" points="135.701,-246.5 125.701,-250 135.701,-253.5 135.701,-246.5"/>
</g>
<!-- \\RippleRestTrustline -->
<g id="node6" class="node"><title>\\RippleRestTrustline</title>
<polygon fill="none" stroke="black" points="338,-214 220,-214 220,-178 338,-178 338,-214"/>
<text text-anchor="middle" x="279" y="-193.1" font-family="Times Roman,serif" font-size="11.00">RippleRestTrustline</text>
</g>
<!-- \\RippleRestTrustline&#45;&gt;\\RippleRestObject -->
<g id="edge11" class="edge"><title>\\RippleRestTrustline&#45;&gt;\\RippleRestObject</title>
<path fill="none" stroke="black" d="M219.952,-211.33C193.531,-218.189 162.316,-226.293 135.305,-233.305"/>
<polygon fill="none" stroke="black" points="134.36,-229.935 125.56,-235.835 136.119,-236.71 134.36,-229.935"/>
</g>
<!-- \\RippleRestBalance -->
<g id="node7" class="node"><title>\\RippleRestBalance</title>
<polygon fill="none" stroke="black" points="337,-160 221,-160 221,-124 337,-124 337,-160"/>
<text text-anchor="middle" x="279" y="-139.1" font-family="Times Roman,serif" font-size="11.00">RippleRestBalance</text>
</g>
<!-- \\RippleRestBalance&#45;&gt;\\RippleRestObject -->
<g id="edge13" class="edge"><title>\\RippleRestBalance&#45;&gt;\\RippleRestObject</title>
<path fill="none" stroke="black" d="M220.789,-159.47C213.007,-162.364 205.226,-165.556 198,-169 164.212,-185.103 128.508,-208.519 103.591,-226.037"/>
<polygon fill="none" stroke="black" points="101.372,-223.32 95.2486,-231.966 105.427,-229.026 101.372,-223.32"/>
</g>
<!-- \\RippleRestAccountSettings -->
<g id="node8" class="node"><title>\\RippleRestAccountSettings</title>
<polygon fill="none" stroke="black" points="360,-106 198,-106 198,-70 360,-70 360,-106"/>
<text text-anchor="middle" x="279" y="-85.1" font-family="Times Roman,serif" font-size="11.00">RippleRestAccountSettings</text>
</g>
<!-- \\RippleRestAccountSettings&#45;&gt;\\RippleRestObject -->
<g id="edge15" class="edge"><title>\\RippleRestAccountSettings&#45;&gt;\\RippleRestObject</title>
<path fill="none" stroke="black" d="M214.822,-106.028C208.95,-108.667 203.245,-111.646 198,-115 152.597,-144.027 112.248,-192.849 89.7706,-223.146"/>
<polygon fill="none" stroke="black" points="86.7138,-221.397 83.649,-231.539 92.3694,-225.522 86.7138,-221.397"/>
</g>
<!-- \\RippleRest -->
<g id="node10" class="node"><title>\\RippleRest</title>
<polygon fill="none" stroke="black" points="315,-52 243,-52 243,-16 315,-16 315,-52"/>
<text text-anchor="middle" x="279" y="-31.1" font-family="Times Roman,serif" font-size="11.00">RippleRest</text>
</g>
</g>
</svg>
