<?xml version="1.0" encoding="UTF-8" standalone="no"?>
<!DOCTYPE svg PUBLIC "-//W3C//DTD SVG 1.1//EN"
 "http://www.w3.org/Graphics/SVG/1.1/DTD/svg11.dtd">
<!-- Generated by graphviz version 2.26.3 (20100126.1600)
 -->
<!-- Title: G Pages: 1 -->
<svg width="401pt" height="782pt"
 viewBox="0.00 0.00 401.00 782.00" xmlns="http://www.w3.org/2000/svg" xmlns:xlink="http://www.w3.org/1999/xlink">
<g id="graph1" class="graph" transform="scale(1 1) rotate(0) translate(4 778)">
<title>G</title>
<polygon fill="white" stroke="white" points="-4,5 -4,-778 398,-778 398,5 -4,5"/>
<g id="graph2" class="cluster"><title>cluster_Global</title>
<polyline fill="none" stroke="gray" points="20,-44 373,-44 "/>
<path fill="none" stroke="gray" d="M373,-44C379,-44 385,-50 385,-56"/>
<polyline fill="none" stroke="gray" points="385,-56 385,-754 "/>
<path fill="none" stroke="gray" d="M385,-754C385,-760 379,-766 373,-766"/>
<polyline fill="none" stroke="gray" points="373,-766 20,-766 "/>
<path fill="none" stroke="gray" d="M20,-766C14,-766 8,-760 8,-754"/>
<polyline fill="none" stroke="gray" points="8,-754 8,-56 "/>
<path fill="none" stroke="gray" d="M8,-56C8,-50 14,-44 20,-44"/>
<text text-anchor="middle" x="196.5" y="-752.1" font-family="Times Roman,serif" font-size="11.00" fill="gray">Global</text>
</g>
<!-- \\RippleRestPayment -->
<g id="node2" class="node"><title>\\RippleRestPayment</title>
<polygon fill="none" stroke="black" points="351,-736 231,-736 231,-700 351,-700 351,-736"/>
<text text-anchor="middle" x="291" y="-715.1" font-family="Times Roman,serif" font-size="11.00">RippleRestPayment</text>
</g>
<!-- \\RippleRestObject -->
<g id="node15" class="node"><title>\\RippleRestObject</title>
<polygon fill="none" stroke="black" points="125,-520 17,-520 17,-484 125,-484 125,-520"/>
<text text-anchor="start" x="41" y="-507.433" font-family="Times Roman,serif" font-size="11.00">«abstract»</text>
<text text-anchor="start" x="25" y="-494.233" font-family="Times Roman,serif" font-size="11.00">RippleRestObject</text>
</g>
<!-- \\RippleRestPayment&#45;&gt;\\RippleRestObject -->
<g id="edge3" class="edge"><title>\\RippleRestPayment&#45;&gt;\\RippleRestObject</title>
<path fill="none" stroke="black" d="M230.308,-704.471C221.349,-700.944 212.592,-696.525 205,-691 145.687,-647.833 102.875,-570.247 83.1566,-529.192"/>
<polygon fill="none" stroke="black" points="86.285,-527.62 78.8628,-520.059 79.9501,-530.598 86.285,-527.62"/>
</g>
<!-- \\RippleRestNotification -->
<g id="node3" class="node"><title>\\RippleRestNotification</title>
<polygon fill="none" stroke="black" points="358,-682 224,-682 224,-646 358,-646 358,-682"/>
<text text-anchor="middle" x="291" y="-661.1" font-family="Times Roman,serif" font-size="11.00">RippleRestNotification</text>
</g>
<!-- \\RippleRestNotification&#45;&gt;\\RippleRestObject -->
<g id="edge5" class="edge"><title>\\RippleRestNotification&#45;&gt;\\RippleRestObject</title>
<path fill="none" stroke="black" d="M223.402,-646.294C216.992,-643.583 210.748,-640.498 205,-637 157.296,-607.971 114.146,-558.388 90.3479,-528.071"/>
<polygon fill="none" stroke="black" points="93.045,-525.837 84.1612,-520.064 87.5059,-530.117 93.045,-525.837"/>
</g>
<!-- \\RippleRestAccount -->
<g id="node4" class="node"><title>\\RippleRestAccount</title>
<polygon fill="none" stroke="black" points="349,-628 233,-628 233,-592 349,-592 349,-628"/>
<text text-anchor="middle" x="291" y="-607.1" font-family="Times Roman,serif" font-size="11.00">RippleRestAccount</text>
</g>
<!-- \\RippleRestClientCURL -->
<g id="node5" class="node"><title>\\RippleRestClientCURL</title>
<polygon fill="none" stroke="black" points="357,-304 225,-304 225,-268 357,-268 357,-304"/>
<text text-anchor="middle" x="291" y="-283.1" font-family="Times Roman,serif" font-size="11.00">RippleRestClientCURL</text>
</g>
<!-- \\RippleRestClient -->
<g id="node11" class="node"><title>\\RippleRestClient</title>
<polygon fill="none" stroke="black" points="123,-277 19,-277 19,-241 123,-241 123,-277"/>
<text text-anchor="start" x="41" y="-264.433" font-family="Times Roman,serif" font-size="11.00">«abstract»</text>
<text text-anchor="start" x="27.5" y="-251.233" font-family="Times Roman,serif" font-size="11.00">RippleRestClient</text>
</g>
<!-- \\RippleRestClientCURL&#45;&gt;\\RippleRestClient -->
<g id="edge7" class="edge"><title>\\RippleRestClientCURL&#45;&gt;\\RippleRestClient</title>
<path fill="none" stroke="black" d="M224.993,-277.899C196.023,-274.344 162.179,-270.19 133.608,-266.684"/>
<polygon fill="none" stroke="black" points="133.692,-263.168 123.34,-265.423 132.839,-270.116 133.692,-263.168"/>
</g>
<!-- \\RippleRestOrder -->
<g id="node6" class="node"><title>\\RippleRestOrder</title>
<polygon fill="none" stroke="black" points="343,-574 239,-574 239,-538 343,-538 343,-574"/>
<text text-anchor="middle" x="291" y="-553.1" font-family="Times Roman,serif" font-size="11.00">RippleRestOrder</text>
</g>
<!-- \\RippleRestOrder&#45;&gt;\\RippleRestObject -->
<g id="edge9" class="edge"><title>\\RippleRestOrder&#45;&gt;\\RippleRestObject</title>
<path fill="none" stroke="black" d="M238.863,-543.203C208.002,-535.628 168.647,-525.968 135.801,-517.906"/>
<polygon fill="none" stroke="black" points="136.379,-514.444 125.833,-515.459 134.71,-521.242 136.379,-514.444"/>
</g>
<!-- \\RippleRestProtocolError -->
<g id="node7" class="node"><title>\\RippleRestProtocolError</title>
<polygon fill="none" stroke="black" points="362,-196 220,-196 220,-160 362,-160 362,-196"/>
<text text-anchor="middle" x="291" y="-175.1" font-family="Times Roman,serif" font-size="11.00">RippleRestProtocolError</text>
</g>
<!-- \\Exception -->
<g id="node22" class="node"><title>\\Exception</title>
<ellipse fill="none" stroke="black" cx="71" cy="-18" rx="62.2254" ry="18.3848"/>
<text text-anchor="middle" x="71" y="-14.4" font-family="Times Roman,serif" font-size="14.00" fill="gray">\Exception</text>
</g>
<!-- \\RippleRestProtocolError&#45;&gt;\\Exception -->
<g id="edge11" class="edge"><title>\\RippleRestProtocolError&#45;&gt;\\Exception</title>
<path fill="none" stroke="black" d="M219.133,-159.785C214.137,-157.226 209.361,-154.314 205,-151 158.181,-115.423 179.158,-76.4316 133,-40 130.731,-38.2088 128.304,-36.5568 125.773,-35.0339"/>
<polygon fill="none" stroke="black" points="127.325,-31.8955 116.845,-30.3389 124.067,-38.0911 127.325,-31.8955"/>
</g>
<!-- \\RippleRestAmount -->
<g id="node8" class="node"><title>\\RippleRestAmount</title>
<polygon fill="none" stroke="black" points="349,-520 233,-520 233,-484 349,-484 349,-520"/>
<text text-anchor="middle" x="291" y="-499.1" font-family="Times Roman,serif" font-size="11.00">RippleRestAmount</text>
</g>
<!-- \\RippleRestAmount&#45;&gt;\\RippleRestObject -->
<g id="edge13" class="edge"><title>\\RippleRestAmount&#45;&gt;\\RippleRestObject</title>
<path fill="none" stroke="black" d="M232.333,-502C202.599,-502 166.415,-502 135.855,-502"/>
<polygon fill="none" stroke="black" points="135.724,-498.5 125.724,-502 135.724,-505.5 135.724,-498.5"/>
</g>
<!-- \\RippleRestTrustline -->
<g id="node9" class="node"><title>\\RippleRestTrustline</title>
<polygon fill="none" stroke="black" points="350,-466 232,-466 232,-430 350,-430 350,-466"/>
<text text-anchor="middle" x="291" y="-445.1" font-family="Times Roman,serif" font-size="11.00">RippleRestTrustline</text>
</g>
<!-- \\RippleRestTrustline&#45;&gt;\\RippleRestObject -->
<g id="edge15" class="edge"><title>\\RippleRestTrustline&#45;&gt;\\RippleRestObject</title>
<path fill="none" stroke="black" d="M231.755,-462.542C202.14,-469.811 166.24,-478.623 135.884,-486.074"/>
<polygon fill="none" stroke="black" points="134.696,-482.761 125.819,-488.544 136.365,-489.56 134.696,-482.761"/>
</g>
<!-- \\RippleRestBalance -->
<g id="node10" class="node"><title>\\RippleRestBalance</title>
<polygon fill="none" stroke="black" points="349,-412 233,-412 233,-376 349,-376 349,-412"/>
<text text-anchor="middle" x="291" y="-391.1" font-family="Times Roman,serif" font-size="11.00">RippleRestBalance</text>
</g>
<!-- \\RippleRestBalance&#45;&gt;\\RippleRestObject -->
<g id="edge17" class="edge"><title>\\RippleRestBalance&#45;&gt;\\RippleRestObject</title>
<path fill="none" stroke="black" d="M232.925,-410.14C223.448,-413.367 213.843,-417.009 205,-421 169.383,-437.075 131.514,-460.637 105.153,-478.209"/>
<polygon fill="none" stroke="black" points="103.013,-475.43 96.6738,-483.919 106.923,-481.236 103.013,-475.43"/>
</g>
<!-- \\RippleRestError -->
<g id="node12" class="node"><title>\\RippleRestError</title>
<polygon fill="none" stroke="black" points="341,-142 241,-142 241,-106 341,-106 341,-142"/>
<text text-anchor="middle" x="291" y="-121.1" font-family="Times Roman,serif" font-size="11.00">RippleRestError</text>
</g>
<!-- \\RippleRestError&#45;&gt;\\Exception -->
<g id="edge19" class="edge"><title>\\RippleRestError&#45;&gt;\\Exception</title>
<path fill="none" stroke="black" d="M240.635,-111.569C228.612,-107.691 216.064,-102.858 205,-97 168.93,-77.9028 168.713,-59.7571 133,-40 129.908,-38.2895 126.658,-36.6711 123.333,-35.1476"/>
<polygon fill="none" stroke="black" points="124.406,-31.8007 113.834,-31.1073 121.666,-38.2422 124.406,-31.8007"/>
</g>
<!-- \\RippleRestAccountSettings -->
<g id="node13" class="node"><title>\\RippleRestAccountSettings</title>
<polygon fill="none" stroke="black" points="372,-358 210,-358 210,-322 372,-322 372,-358"/>
<text text-anchor="middle" x="291" y="-337.1" font-family="Times Roman,serif" font-size="11.00">RippleRestAccountSettings</text>
</g>
<!-- \\RippleRestAccountSettings&#45;&gt;\\RippleRestObject -->
<g id="edge21" class="edge"><title>\\RippleRestAccountSettings&#45;&gt;\\RippleRestObject</title>
<path fill="none" stroke="black" d="M222.509,-358.087C216.412,-360.705 210.481,-363.665 205,-367 157.296,-396.029 114.146,-445.612 90.3479,-475.929"/>
<polygon fill="none" stroke="black" points="87.5059,-473.883 84.1612,-483.936 93.045,-478.163 87.5059,-473.883"/>
</g>
<!-- \\RippleRestClientURLFileOpen -->
<g id="node14" class="node"><title>\\RippleRestClientURLFileOpen</title>
<polygon fill="none" stroke="black" points="376,-250 206,-250 206,-214 376,-214 376,-250"/>
<text text-anchor="middle" x="291" y="-229.1" font-family="Times Roman,serif" font-size="11.00">RippleRestClientURLFileOpen</text>
</g>
<!-- \\RippleRestClientURLFileOpen&#45;&gt;\\RippleRestClient -->
<g id="edge23" class="edge"><title>\\RippleRestClientURLFileOpen&#45;&gt;\\RippleRestClient</title>
<path fill="none" stroke="black" d="M205.312,-242.516C181.248,-245.47 155.551,-248.623 133.144,-251.373"/>
<polygon fill="none" stroke="black" points="132.597,-247.914 123.098,-252.606 133.45,-254.862 132.597,-247.914"/>
</g>
<!-- \\RippleRest -->
<g id="node16" class="node"><title>\\RippleRest</title>
<polygon fill="none" stroke="black" points="327,-88 255,-88 255,-52 327,-52 327,-88"/>
<text text-anchor="middle" x="291" y="-67.1" font-family="Times Roman,serif" font-size="11.00">RippleRest</text>
</g>
</g>
</svg>
